<svg xmlns="http://www.w3.org/2000/svg" width="16" height="5" viewBox="0 0 16 5" fill="none">
  <path d="M8 0.583328C6.9 0.583328 6 1.44583 6 2.49999C6 3.55416 6.9 4.41666 8 4.41666C9.1 4.41666 10 3.55416 10 2.49999C10 1.44583 9.1 0.583328 8 0.583328ZM14 0.583328C12.9 0.583328 12 1.44583 12 2.49999C12 3.55416 12.9 4.41666 14 4.41666C15.1 4.41666 16 3.55416 16 2.49999C16 1.44583 15.1 0.583328 14 0.583328ZM2 0.583328C0.9 0.583328 0 1.44583 0 2.49999C0 3.55416 0.9 4.41666 2 4.41666C3.1 4.41666 4 3.55416 4 2.49999C4 1.44583 3.1 0.583328 2 0.583328Z" fill="white"/>
</svg>
